<svg id="Слой_1" data-name="Слой 1" xmlns="http://www.w3.org/2000/svg" viewBox="0 0 1000 60"><defs><style>.cls-1{fill:#d3dff3;stroke:#476db4;stroke-miterlimit:10;stroke-width:2.03px;}</style></defs><path class="cls-1" d="M93.93,59.9c5.83-5,5.47-8.65-1.93-15.62a11.7,11.7,0,0,1,6.34.1,21.39,21.39,0,0,0,7.92.39c3.35-.56,6.17-2.4,6.32-6,.14-3.35-1.62-6.17-5.26-6.87C101.8,30.84,96.23,30,90.67,29.17c-9.47-1.46-19-2.87-29.81-4.51,5.91-2.85,11.12-3.24,16.06-4.47,5.29-1.33,10.71-2.14,16-3.48,3.35-.85,6.5-2.42,5.44-6.82S94.29,5,90.28,5.8c-18.54,3.54-36.88,8-55.2,12.41-3.72.91-7.06,2.28-9,5.89v4c3.12,2.09,6.18,4.27,9.37,6.25C52.37,44.79,70.36,53,89,59.9Z"/><path class="cls-1" d="M477.89,8.25,444.54,21.66c-1.84.74-3.64,1.47-4.7,3.4-2.1,3.84.16,8.19,4.5,8.11a21.43,21.43,0,0,0,6.28-1.29c9.86-3.34,19.68-6.8,29.5-10.23,3.19-1.1,6.48-2.2,6.59-6.37.11-3.95-2.78-5.59-5.83-7Z"/><path class="cls-1" d="M345,34.69c-10,1.21-20.09,2.29-30.11,3.68C310.16,39,307,43,307.5,46.8c.55,4.49,4,7.39,9.18,7,11.55-1,23.15-1.7,34.42-4.7,4.19-1.12,6-4.13,5.38-8.23S353.06,35,349,35h-4Z"/><path class="cls-1" d="M261,42.09c-4.61,0-9.74-.1-14.87,0-6,.15-9,2.67-9.14,7.52-.15,4.39,2.23,6.48,8.14,7.32,10.55,1.5,21.15,1,31.73.87a12.67,12.67,0,0,0,3.38-.67c3.82-1.16,6.63-3.33,6.15-7.73s-3.45-6.2-7.5-6.46C273.07,42.59,267.28,42.39,261,42.09Z"/><path class="cls-1" d="M415.6,24.92c-11.73,2-23.47,3.9-35.17,6-4.2.75-6.55,3.74-5.9,7.81s3.43,6.81,8.07,6.37a267,267,0,0,0,35.2-5.75c4.93-1.15,7.12-4.33,6.34-8.49C423.26,26.18,419.93,25,415.6,24.92Z"/><path class="cls-1" d="M213.25,57c.66,0,1.32.14,2,.15,5.64.1,9.73-2.6,10.16-6.7.41-3.88-2.83-7.47-8.25-8.29-10.32-1.56-20.67-3-31.05-4.06-5.4-.57-7.87,1.54-8.56,6-.72,4.67,1.28,7.48,6.71,8.66A219.49,219.49,0,0,0,213.25,57Z"/><path class="cls-1" d="M154.64,50.83c6.53,0,10-2.82,10-6.88.08-4.57-2.29-6.82-6.9-7.27-10.7-1-21.37-2.36-32.06-3.49-4.2-.44-6.8,1.87-7.44,5.68a5.72,5.72,0,0,0,5,6.9C134.3,47.71,145.42,49.36,154.64,50.83Z"/><path class="cls-1" d="M507,16.37q17.88-1.82,35.76-3.65c2-.21,3.9-.41,5.46-2,3.08-3.1,2.11-7.91-2.08-9a21.35,21.35,0,0,0-6.39-.5C529.39,1.7,519,2.3,508.6,2.88c-3.36.18-6.83.32-8.09,4.3-1.19,3.76,1.13,6.14,3.66,8.37Z"/><path class="cls-1" d="M644.28,20c10,1.62,19.94,3.36,30,4.79,4.73.68,8.83-2.22,9.44-6.05.71-4.47-1.81-8.21-6.9-9.23-11.36-2.27-22.72-4.77-34.38-5-4.33-.09-6.92,2.3-7.44,6.41s1.66,6.56,5.56,7.63c1.28.36,2.55.74,3.83,1.11Z"/><path class="cls-1" d="M727.08,36.17c4.43,1.27,9.34,2.79,14.3,4.09,5.85,1.52,9.38-.08,10.87-4.7,1.35-4.18-.35-6.84-5.8-9.29-9.72-4.36-20-6.84-30.25-9.62a12.74,12.74,0,0,0-3.44-.28c-4,.06-7.29,1.36-8,5.72s1.61,6.91,5.42,8.28C715.59,32.34,721.1,34.13,727.08,36.17Z"/><path class="cls-1" d="M572.31,14.83c11.82,1.34,23.63,2.74,35.46,4,4.24.44,7.32-1.79,7.83-5.88s-1.42-7.49-6-8.34A266.88,266.88,0,0,0,574.19.35c-5.06-.25-8,2.2-8.44,6.41C565.29,11.5,568.16,13.6,572.31,14.83Z"/><path class="cls-1" d="M773.65,30.36c-.66,0-1.33-.08-2-.07-5.64.11-9.63,3-9.9,7.08-.26,3.9,3.11,7.36,8.55,8,10.38,1.16,20.77,2.18,31.19,2.88,5.41.36,7.8-1.84,8.32-6.37.54-4.7-1.56-7.43-7-8.4A222.35,222.35,0,0,0,773.65,30.36Z"/><path class="cls-1" d="M958.67,12.94c-4.46,1.15-9.46,2.33-14.39,3.74-5.82,1.65-8,4.83-7,9.57,1,4.28,3.78,5.71,9.72,5.05C957.6,30.12,967.75,27,978,24.22a12.82,12.82,0,0,0,3.1-1.49c3.4-2.08,5.59-4.88,4-9s-4.89-5.14-8.88-4.39C970.52,10.4,964.86,11.65,958.67,12.94Z"/><path class="cls-1" d="M916.2,39.31c.65-.11,1.31-.19,2-.35,5.48-1.3,8.77-4.94,8.17-9-.58-3.87-4.61-6.53-10.06-6-10.38,1.07-20.76,2.28-31.08,3.82-5.37.8-7.24,3.46-6.78,8,.47,4.7,3.11,6.93,8.65,6.71A219.48,219.48,0,0,0,916.2,39.31Z"/><path class="cls-1" d="M857.89,47.94c6.32-1.65,9-5.23,8-9.18-1.06-4.43-3.92-6-8.5-5.31-10.62,1.66-21.28,3-31.92,4.63-4.17.61-6.11,3.51-5.78,7.35a5.72,5.72,0,0,0,6.53,5.44C837.42,50,848.6,48.82,857.89,47.94Z"/></svg>